Coordinates
version=1
nRows=16
nColumns=40
inDegrees=yes

Units are S.I. units (second, meters, Newtons, ...)
If the header above contains a line with 'inDegrees', this indicates whether rotational values are in degrees (yes) or radians (no).

endheader
time	pelvis_tilt	pelvis_list	pelvis_rotation	pelvis_tx	pelvis_ty	pelvis_tz	hip_flexion_r	hip_adduction_r	hip_rotation_r	knee_angle_r	knee_angle_r_beta	ankle_angle_r	subtalar_angle_r	mtp_angle_r	hip_flexion_l	hip_adduction_l	hip_rotation_l	knee_angle_l	knee_angle_l_beta	ankle_angle_l	subtalar_angle_l	mtp_angle_l	lumbar_extension	lumbar_bending	lumbar_rotation	arm_flex_r	arm_add_r	arm_rot_r	elbow_flex_r	pro_sup_r	wrist_flex_r	wrist_dev_r	arm_flex_l	arm_add_l	arm_rot_l	elbow_flex_l	pro_sup_l	wrist_flex_l	wrist_dev_l
      2.14500000	    -31.02505831	      5.20452326	     -6.21452558	     -0.42539144	      0.59293583	     -0.90972872	    109.38094354	    -22.76479909	     12.19358628	    104.81938216	      1.82944334	     27.81622193	      0.00000000	      0.00000000	    106.21584208	    -33.54631297	      2.58778156	    108.01517341	      1.88522042	     35.81808244	      0.00000000	      0.00000000	    -22.82623334	     -6.38091249	      2.60074248	     17.75777053	    -54.01499102	     89.56073306	     91.61954847	     88.76343058	      0.00000000	      0.00000000	     19.26834440	    -59.71399188	     89.57461863	     99.96641365	     88.52105193	      0.00000000	      0.00000000
      2.15000000	    -31.02168946	      5.22355286	     -6.33913543	     -0.42533235	      0.59290575	     -0.90932210	    109.36617702	    -22.61100628	     12.17215403	    104.82481208	      1.82953811	     27.80928191	      0.00000000	      0.00000000	    106.22781032	    -33.70726091	      2.63910303	    108.02970910	      1.88547411	     35.74509952	      0.00000000	      0.00000000	    -22.83566579	     -6.44552486	      2.69568961	     17.77677390	    -54.01633604	     89.56257133	     91.63993075	     88.73518107	      0.00000000	      0.00000000	     19.26041795	    -59.75404144	     89.57678186	    100.03847660	     88.57624895	      0.00000000	      0.00000000
      2.15500000	    -31.01380945	      5.25727173	     -6.50299022	     -0.42524616	      0.59289399	     -0.90876874	    109.33863969	    -22.41998259	     12.11520456	    104.81916514	      1.82943955	     27.86648244	      0.00000000	      0.00000000	    106.22199777	    -33.98397612	      2.61625474	    108.05655356	      1.88594264	     35.80480362	      0.00000000	      0.00000000	    -22.83020000	     -6.54463080	      2.82479285	     17.77736970	    -53.97159126	     89.56226204	     91.59334653	     88.73750124	      0.00000000	      0.00000000	     19.27276353	    -59.76242181	     89.57838220	     99.95528664	     88.54438312	      0.00000000	      0.00000000
      2.16000000	    -30.96618676	      5.21592145	     -6.32104599	     -0.42495023	      0.59309805	     -0.90924310	    109.27937727	    -22.68815189	     12.11906004	    104.84763671	      1.82993647	     27.90205408	      0.00000000	      0.00000000	    106.11635527	    -33.76094603	      2.55920099	    108.03439591	      1.88555591	     35.90826228	      0.00000000	      0.00000000	    -22.91073758	     -6.40187249	      2.71327550	     17.75305004	    -54.01239718	     89.56238023	     91.51341885	     88.74107252	      0.00000000	      0.00000000	     19.35609277	    -59.64356794	     89.58977762	     99.78790966	     88.46204709	      0.00000000	      0.00000000
      2.16500000	    -31.01526028	      5.29017489	     -6.57512659	     -0.42506502	      0.59296015	     -0.90841704	    109.33637547	    -22.35271848	     12.08905705	    104.82627283	      1.82956360	     27.84800150	      0.00000000	      0.00000000	    106.19301571	    -34.10883866	      2.59333449	    108.05503276	      1.88591610	     35.85067037	      0.00000000	      0.00000000	    -22.84696393	     -6.59404509	      2.87311250	     17.78626611	    -53.97778894	     89.56432103	     91.61037518	     88.72873521	      0.00000000	      0.00000000	     19.27968545	    -59.78120725	     89.57700960	     99.99271069	     88.56230974	      0.00000000	      0.00000000
      2.17000000	    -31.05414262	      5.41456055	     -6.31873073	     -0.42496997	      0.59295924	     -0.90918346	    109.51470861	    -22.64532544	     12.32770645	    104.84467879	      1.82988485	     27.81380193	      0.00000000	      0.00000000	    106.04950102	    -33.81265158	      2.28713045	    108.00422909	      1.88502940	     35.83660072	      0.00000000	      0.00000000	    -22.83243115	     -6.58485817	      2.58789378	     17.79769616	    -54.02037524	     89.56543604	     91.65859375	     88.73273642	      0.00000000	      0.00000000	     19.26539476	    -59.77205573	     89.57586931	     99.98013017	     88.55276142	      0.00000000	      0.00000000
      2.17500000	    -31.13179978	      5.17895776	     -6.54639268	     -0.42509013	      0.59288257	     -0.90829451	    109.35381322	    -22.39886624	     11.91768855	    104.79075455	      1.82894369	     27.88426745	      0.00000000	      0.00000000	    106.40796830	    -34.08275569	      2.76418549	    108.03575427	      1.88557962	     35.75770506	      0.00000000	      0.00000000	    -22.75468843	     -6.42896437	      2.91491853	     17.76356262	    -54.05123561	     89.56523768	     91.68911744	     88.73690294	      0.00000000	      0.00000000	     19.27184035	    -59.74189849	     89.57581341	     99.96559967	     88.54537334	      0.00000000	      0.00000000
      2.18000000	    -31.28702410	      5.26194861	     -6.27479713	     -0.42503979	      0.59258912	     -0.90904192	    109.61741960	    -22.70156179	     12.10189292	    104.84685348	      1.82992280	     28.01910650	      0.00000000	      0.00000000	    106.41079591	    -33.70550069	      2.56393657	    107.96826334	      1.88440168	     36.19644065	      0.00000000	      0.00000000	    -22.57340913	     -6.36289981	      2.68853518	     17.64793915	    -54.02378846	     89.56426150	     91.45453310	     88.73689402	      0.00000000	      0.00000000	     19.24915725	    -59.61196975	     89.59533411	     99.70835090	     88.21367082	      0.00000000	      0.00000000
      2.18500000	    -31.17925972	      5.24436593	     -6.34677424	     -0.42489140	      0.59283131	     -0.90873595	    109.48810609	    -22.64107139	     12.05118330	    104.84963191	      1.82997130	     27.82334088	      0.00000000	      0.00000000	    106.35092515	    -33.85200105	      2.59853967	    108.01232394	      1.88517069	     35.77936390	      0.00000000	      0.00000000	    -22.71976157	     -6.37715188	      2.73021036	     17.72529601	    -54.09646047	     89.56284251	     91.69763484	     88.76804529	      0.00000000	      0.00000000	     19.28909032	    -59.69731595	     89.58275640	     99.95516586	     88.48164070	      0.00000000	      0.00000000
      2.19000000	    -31.17227971	      5.31310255	     -6.56315213	     -0.42484536	      0.59294946	     -0.90799613	    109.46141439	    -22.36417610	     12.01931239	    104.82573617	      1.82955424	     27.88554548	      0.00000000	      0.00000000	    106.30541963	    -34.13835920	      2.59082293	    107.98692855	      1.88472745	     35.80765090	      0.00000000	      0.00000000	    -22.72367818	     -6.54735005	      2.89023315	     17.73343714	    -54.04724962	     89.56368818	     91.70316762	     88.72997335	      0.00000000	      0.00000000	     19.26403767	    -59.77299185	     89.57888945	     99.99455335	     88.54447584	      0.00000000	      0.00000000
      2.19500000	    -31.19774206	      5.39141281	     -6.50744612	     -0.42479719	      0.59297421	     -0.90815056	    109.54554015	    -22.43038163	     12.11387732	    104.80750036	      1.82923596	     27.84949076	      0.00000000	      0.00000000	    106.24872520	    -34.09419824	      2.44837902	    107.98419565	      1.88467975	     35.73814290	      0.00000000	      0.00000000	    -22.71099978	     -6.58370830	      2.81541349	     17.73127221	    -54.06919697	     89.56361240	     91.72515015	     88.73334995	      0.00000000	      0.00000000	     19.28599228	    -59.76730924	     89.57950140	     99.99923587	     88.54748033	      0.00000000	      0.00000000
      2.20000000	    -31.22886888	      5.35306945	     -6.48311765	     -0.42476811	      0.59312323	     -0.90810297	    109.52369652	    -22.45590016	     12.06564914	    104.78834426	      1.82890163	     27.86203636	      0.00000000	      0.00000000	    106.27491689	    -34.05164480	      2.49333774	    107.94264715	      1.88395460	     35.80948279	      0.00000000	      0.00000000	    -22.70916802	     -6.51300975	      2.82065611	     17.72750766	    -54.10885399	     89.56338632	     91.75575627	     88.73165258	      0.00000000	      0.00000000	     19.28722326	    -59.74127173	     89.58113572	     99.96993417	     88.54323261	      0.00000000	      0.00000000
      2.20500000	    -31.23017108	      5.29683860	     -6.09802373	     -0.42452730	      0.59333568	     -0.90912830	    109.54516153	    -22.96535092	     12.12802992	    104.83024445	      1.82963292	     27.84693129	      0.00000000	      0.00000000	    106.18297443	    -33.51167686	      2.41873167	    107.87582308	      1.88278830	     35.84682910	      0.00000000	      0.00000000	    -22.76527419	     -6.25459564	      2.52596845	     17.71690532	    -54.20389858	     89.56027701	     91.82721047	     88.77776856	      0.00000000	      0.00000000	     19.33791960	    -59.63102944	     89.58148582	     99.94627562	     88.53516120	      0.00000000	      0.00000000
      2.21000000	    -31.33360484	      5.34442622	     -6.33876497	     -0.42471781	      0.59322070	     -0.90834690	    109.62099678	    -22.63268143	     12.05680818	    104.79132606	      1.82895367	     27.82190578	      0.00000000	      0.00000000	    106.35014221	    -33.81893259	      2.50596284	    107.90224649	      1.88324947	     35.73767958	      0.00000000	      0.00000000	    -22.62865007	     -6.40296111	      2.74888202	     17.67371654	    -54.15399647	     89.56179412	     91.81907038	     88.73845246	      0.00000000	      0.00000000	     19.32387017	    -59.67667176	     89.58154792	     99.94127075	     88.54504036	      0.00000000	      0.00000000
      2.21500000	    -31.25877438	      5.32577766	     -6.30907185	     -0.42445947	      0.59357246	     -0.90832375	    109.49816184	    -22.69396429	     12.03601415	    104.79103437	      1.82894858	     27.89149268	      0.00000000	      0.00000000	    106.18048033	    -33.78380557	      2.45780570	    107.84449998	      1.88224160	     35.89481260	      0.00000000	      0.00000000	    -22.72574910	     -6.35596059	      2.74627172	     17.69584671	    -54.18129672	     89.56439455	     91.78028593	     88.74876583	      0.00000000	      0.00000000	     19.37180997	    -59.62036551	     89.58499403	     99.82795283	     88.52293926	      0.00000000	      0.00000000
      2.22000000	    -31.32649876	      5.33471105	     -6.31762163	     -0.42453601	      0.59381323	     -0.90819193	    109.49588991	    -22.67752667	     11.96678055	    104.71299181	      1.82758648	     28.16807535	      0.00000000	      0.00000000	    106.18545631	    -33.74418745	      2.45500558	    107.77081279	      1.88095552	     36.13962599	      0.00000000	      0.00000000	    -22.66115775	     -6.35798193	      2.75155077	     17.76484253	    -54.11558869	     89.58872565	     91.69155539	     88.60060110	      0.00000000	      0.00000000	     19.44640693	    -59.59233837	     89.60664812	     99.76873383	     88.19861484	      0.00000000	      0.00000000
